<?xml version="1.0" encoding="UTF-8"?>
<svg width="120px" height="28px" viewBox="0 0 120 28" version="1.1" xmlns="http://www.w3.org/2000/svg" xmlns:xlink="http://www.w3.org/1999/xlink">
    <title>Group</title>
    <g id="Page-1" stroke="none" stroke-width="1" fill="none" fill-rule="evenodd">
        <g id="Desktop-HD-Copy-19" transform="translate(-30.000000, -30.000000)" fill="#000000" fill-rule="nonzero">
            <g id="Group" transform="translate(30.000000, 30.000000)">
                <path d="M36.2528531,17.8567402 L39.9354157,17.8567402 C40,17.4045034 40,16.9522665 40,16.4999556 C40,10.1685653 34.8314806,5 28.5,5 C22.1685194,5 17,10.1685653 17,16.4999556 C17,22.8314199 22.1685194,28 28.5,28 C33.9270046,28 38.3848747,24.2527887 39.6770046,19.278109 L33.0871128,19.278109 C32.1179784,20.828646 30.4381948,21.862362 28.5,21.862362 C25.9803246,21.862362 23.9129613,20.1179246 23.3314806,17.8567402 L33.7331777,17.8567402 L36.2528531,17.8567402 Z M28.5,11.2022072 C30.3090262,11.2022072 31.9241515,12.1067551 32.8932859,13.4634657 L24.1067141,13.4634657 C25.0758485,12.1067551 26.6910479,11.2022072 28.5,11.2022072 Z" id="Shape"></path>
                <path d="M116.253075,17.8567402 L119.935564,17.8567402 C120,17.4045034 120,16.9522665 120,16.4999556 C120,10.1685653 114.831777,5 108.5,5 C102.168223,5 97,10.1685653 97,16.4999556 C97,22.8314199 102.168223,28 108.5,28 C113.926708,28 118.384653,24.2527887 119.677079,19.278109 L113.086817,19.278109 C112.118052,20.828646 110.438269,21.862362 108.5,21.862362 C105.980325,21.862362 103.913183,20.1179246 103.331777,17.8567402 L113.7334,17.8567402 L116.253075,17.8567402 Z M108.5,11.2022072 C110.308656,11.2022072 111.924003,12.1067551 112.893508,13.4634657 L104.106492,13.4634657 C105.075997,12.1067551 106.691344,11.2022072 108.5,11.2022072 Z" id="Shape"></path>
                <path d="M0,27 L1.21739221,27 C4.44347705,27 7,24.235722 7,20.8928536 L7,0 L5.78260779,0 C2.55652295,0 0,2.76428536 0,6.107139 L0,27 Z" id="Path"></path>
                <path d="M13.0730541,19 C11.1103666,19 9.52763133,20.4720006 9.21104073,22.3280141 C8.70458287,24.8240247 7.24841854,26.0400411 7.24841854,26.0400411 C6.80523526,26.3600029 6.9951751,27 7.50166199,27 L13.0730541,27 C15.2256089,27 16.9983565,25.2080376 16.9983565,23.0319888 C17.0616456,20.7920358 15.2889705,19 13.0730541,19 Z" id="Path"></path>
                <path d="M53.3302658,5 C50.8899359,5 48.6421998,6.34693667 47.2293308,7.69388806 C46.9082677,6.21865769 46.2017964,5.19241847 44.4678642,5.19241847 L41,5.19241847 L41,27 L47.4219981,27 L47.4219981,15.454818 C47.4219981,13.209899 49.6697342,11.3498317 51.9174704,11.3498317 C54.1651329,11.3498317 55.5780019,13.1457816 55.5780019,15.454818 L55.5780019,27 L62,27 L62,15.0699663 C61.8716042,9.29733858 59.1101377,5 53.3302658,5 Z" id="Path"></path>
                <path d="M86.8685134,5 C84.136899,5 81.7868805,5.89795288 80.5801929,7.37316854 C79.1819792,5.96209237 77.1494717,5 74.5452986,5 C73.0204446,5 70.9241436,6.02623186 70.0348214,7.11661057 C69.7171648,6.02623186 68.8913448,5.19241847 67.4302843,5.19241847 L64,5.19241847 L64,27 L70.3524053,27 L70.3524053,15.454818 C70.3524053,13.209899 71.1147231,11.3498317 73.3378829,11.3498317 C75.5611883,11.3498317 76.3236517,13.1457816 76.3236517,15.454818 L76.3236517,27 L82.676057,27 L82.676057,15.454818 C82.676057,13.209899 83.4385204,11.3498317 85.6618259,11.3498317 C87.8851313,11.3498317 88.6475947,13.1457816 88.6475947,15.454818 L88.6475947,27 L95,27 L95,12.6326215 C94.9366434,8.33528297 91.887518,5 86.8685134,5 Z" id="Path"></path>
            </g>
        </g>
    </g>
</svg>